<?xml version="1.0" ?><!DOCTYPE svg  PUBLIC '-//W3C//DTD SVG 1.1//EN'  'http://www.w3.org/Graphics/SVG/1.1/DTD/svg11.dtd'>
<svg height="2048px" style="shape-rendering:geometricPrecision; text-rendering:geometricPrecision; image-rendering:optimizeQuality; fill-rule:evenodd; clip-rule:evenodd" viewBox="0 0 2048 2048" width="2048px" xml:space="preserve" xmlns="http://www.w3.org/2000/svg" xmlns:xlink="http://www.w3.org/1999/xlink">
  <defs>
    <style type="text/css">
    <![CDATA[
      .fil1 {fill:none}
      .fil0 {fill: rgba(0,0,0,.87)}
    ]]>
    </style>
  </defs>
    <g id="Layer_x0020_1"><path class="fil0" d="M1499.97 548.053c-121.814,-121.808 -290.098,-197.15 -475.961,-197.15 -21.1925,0 -42.5386,1.04764 -63.9709,3.08032 -19.0134,1.80354 -37.6583,4.36418 -55.9075,7.63938 -74.9693,-62.7284 -168.132,-92.5182 -260.338,-89.328 -94.1103,3.2563 -187.207,40.7563 -258.973,112.525 -71.7745,71.7591 -109.279,164.858 -112.532,258.975 -3.18662,92.1993 26.6091,185.361 89.3528,260.335 -3.28229,18.2339 -5.85,36.8693 -7.65709,55.8768 -2.0374,21.4335 -3.0874,42.7843 -3.0874,63.9827 0,185.875 75.3461,354.149 197.152,475.956 121.813,121.813 290.098,197.157 475.961,197.157 21.2055,0 42.5622,-1.04882 64.0075,-3.08504 19.0087,-1.80591 37.65,-4.37244 55.8993,-7.65473 74.9528,62.7367 168.105,92.53 260.306,89.3434 94.1103,-3.25276 187.212,-40.754 258.983,-112.521 71.7603,-71.7627 109.26,-164.867 112.514,-258.985 3.18662,-92.2005 -26.602,-185.361 -89.3351,-260.323 3.2811,-18.241 5.84764,-36.8788 7.65355,-55.8851 2.0374,-21.4417 3.08622,-42.7961 3.08622,-64.0016 0,-185.863 -75.3461,-354.134 -197.153,-475.936zm-152.555 234.862l0 0zm-105.937 110.378l0 0zm-577.751 -33.6874c0,-187.158 182.591,-256.344 338.892,-256.344 88.0914,0 176.847,18.4169 241.595,50.6422 62.2406,30.978 103.201,75.104 103.201,129.012 0,28.9004 -9.94489,56.2937 -28.0925,76.6064 -18.3791,20.5701 -44.9268,33.7075 -77.8394,33.7087l-0.00472441 0.0625985c-43.1303,0 -66.5847,-21.1146 -92.8276,-44.7402 -28.115,-25.3099 -60.0308,-54.0414 -129.804,-54.0414 -36.2823,0 -65.4615,4.86496 -84.6355,15.1358 -14.8642,7.96182 -23.2169,19.5921 -23.2169,35.2087 0,18.0484 9.02009,29.3362 24.1902,37.5331 18.6945,10.1008 46.3394,16.4717 78.2776,23.5772l0.125197 0 89.9138 20.6516c62.6434,14.3291 131.515,34.8213 185.433,71.4686 55.9359,38.0174 95.3564,92.6481 95.3564,174.11 0,86.0918 -38.2477,150.943 -96.4064,195.913 -66.9957,51.8008 -160.445,76.6064 -251.351,76.6064 -100.142,0 -192.203,-22.5744 -259.314,-58.9004 -69.8528,-37.8095 -113.492,-90.9225 -113.492,-150.234 0,-29.1236 9.00946,-57.0603 28.363,-77.08 17.1083,-17.6953 41.739,-28.8803 74.6138,-28.8803 46.8697,0 73.5615,27.1394 103.824,57.9119 34.1303,34.7067 73.5426,74.7816 157.184,74.7816 34.5083,0 62.439,-7.23544 81.6875,-19.2378 17.6988,-11.035 27.6248,-26.1331 27.6248,-42.8941 0,-39.3685 -37.9914,-48.7926 -100.437,-64.2792l-11.289 -2.79213 0.00708662 -0.0283465 -126.671 -30.9248 -0.0625985 0c-64.9123,-16.0394 -122.79,-37.6181 -165.025,-74.4012 -43.4126,-37.8095 -69.8186,-90.665 -69.8186,-168.151z"/></g>
    <rect class="fil1" height="2048" width="2048"/>
</svg>